<?xml version="1.0" standalone="no"?>
<!DOCTYPE svg PUBLIC "-//W3C//DTD SVG 20010904//EN"
 "http://www.w3.org/TR/2001/REC-SVG-20010904/DTD/svg10.dtd">
<svg version="1.0" xmlns="http://www.w3.org/2000/svg"
 width="800.000000pt" height="686.000000pt" viewBox="0 0 800.000000 686.000000"
 preserveAspectRatio="xMidYMid meet">
<metadata>
Created by potrace 1.13, written by Peter Selinger 2001-2015
</metadata>
<g transform="translate(0.000000,686.000000) scale(0.100000,-0.100000)"
fill="#000000" stroke="none">
<path d="M3820 5869 c-109 -14 -198 -39 -370 -104 -91 -35 -191 -71 -222 -80
-34 -9 -83 -35 -116 -60 -73 -55 -97 -64 -194 -75 -42 -5 -101 -19 -130 -32
-128 -55 -643 -514 -884 -789 -336 -382 -554 -746 -694 -1154 -122 -360 -166
-669 -158 -1117 5 -241 7 -271 31 -360 31 -118 95 -245 192 -381 131 -184 272
-317 490 -462 267 -178 523 -284 735 -305 135 -14 183 -26 285 -75 151 -72
255 -85 651 -86 669 0 1358 87 1959 247 867 231 1564 531 1661 716 19 37 18
60 -6 86 -31 33 -73 28 -119 -13 -47 -43 -127 -80 -212 -99 -35 -8 -98 -22
-139 -32 -75 -16 -140 -44 -172 -71 -49 -43 -588 -187 -1038 -277 -563 -112
-1228 -168 -1750 -146 -281 11 -441 28 -716 75 -230 39 -395 53 -441 38 -40
-15 -60 -1 -68 47 -10 60 -25 70 -105 70 -57 0 -78 5 -126 31 -204 106 -498
420 -590 627 -65 147 -89 297 -88 557 1 225 19 381 70 615 60 270 194 604 315
785 30 44 100 128 157 188 121 127 188 215 197 260 18 86 162 236 390 407 569
427 1042 600 1636 600 259 0 366 -23 487 -104 81 -54 226 -194 288 -279 91
-123 118 -201 132 -378 11 -125 22 -159 52 -159 49 0 92 161 92 345 1 304
-105 487 -387 671 -329 214 -746 318 -1095 273z"/>
</g>
</svg>
