<?xml version="1.0" encoding="UTF-8" ?>
<!DOCTYPE svg PUBLIC "-//W3C//DTD SVG 1.1//EN" "http://www.w3.org/Graphics/SVG/1.1/DTD/svg11.dtd">
<svg width="319pt" height="318pt" viewBox="0 0 319 318" version="1.1" xmlns="http://www.w3.org/2000/svg">
<path fill="#000000" d=" M 142.75 21.73 C 144.90 15.98 150.49 10.73 157.00 11.30 C 161.45 10.86 165.62 13.28 168.47 16.53 C 170.94 19.55 171.60 23.49 172.19 27.23 C 174.69 45.47 177.82 63.62 180.23 81.87 C 180.36 86.17 176.97 88.95 174.50 91.92 C 176.05 100.63 177.30 109.40 178.55 118.16 C 166.02 120.64 154.36 126.22 143.27 132.40 C 127.44 141.51 112.74 153.03 101.65 167.65 C 92.60 179.74 86.71 194.72 87.63 209.99 C 88.78 225.40 96.00 239.66 105.17 251.83 C 110.80 258.49 117.06 264.79 124.57 269.33 C 133.85 274.77 144.24 278.39 154.96 279.47 C 164.30 279.89 173.76 280.15 182.99 278.45 C 199.78 275.68 215.92 269.76 231.12 262.19 C 247.45 253.91 263.06 243.98 276.64 231.65 C 279.38 229.14 281.76 226.24 284.70 223.95 C 276.89 246.57 259.77 264.92 240.34 278.33 C 220.50 291.59 197.82 301.15 174.00 303.87 C 144.53 307.51 113.51 298.54 91.11 278.89 C 86.62 274.38 82.29 269.70 77.91 265.09 C 68.18 253.21 62.33 238.62 58.91 223.77 C 56.17 210.76 55.70 197.10 59.14 184.17 C 63.19 167.05 73.32 151.95 85.68 139.68 C 106.37 119.77 132.43 106.10 159.58 97.24 C 159.54 96.05 159.55 94.86 159.60 93.67 C 157.17 92.46 154.22 91.65 152.75 89.16 C 150.45 85.84 150.57 81.67 149.80 77.87 C 147.51 62.99 145.42 48.08 143.01 33.22 C 142.50 29.43 141.89 25.50 142.75 21.73 Z" />
</svg>
