<svg width="232" height="300" xmlns="http://www.w3.org/2000/svg" preserveAspectRatio="xMidYMid meet">
 <metadata>Created by potrace 1.13, written by Peter Selinger 2001-2015</metadata>

 <g>
  <title>background</title>
  <rect fill="none" id="canvas_background" height="402" width="582" y="-1" x="-1"/>
 </g>
 <g>
  <title>Layer 1</title>
  <g id="svg_1" fill="white" transform="translate(0,300) scale(0.10000000149011612,-0.10000000149011612) ">
   <path id="svg_2" d="m965,2966c-41,-18 -83,-69 -90,-109c-8,-44 81,-625 101,-655c8,-12 26,-28 40,-34c14,-7 24,-20 24,-32c0,-17 -17,-27 -93,-55c-119,-43 -289,-128 -397,-198c-353,-231 -530,-507 -530,-831c0,-120 18,-219 65,-350c47,-132 104,-222 209,-330c187,-194 394,-293 671,-323c250,-28 558,55 833,223c196,119 384,320 463,493c16,35 29,67 29,71c0,3 -27,-19 -60,-49c-253,-235 -643,-431 -959,-483c-256,-42 -485,12 -660,155c-107,87 -231,288 -267,431c-12,47 -15,93 -12,165c8,153 61,273 188,422c135,160 415,340 631,408l85,26l-19,127l-20,127l27,39c14,22 26,53 26,70c0,17 -20,161 -44,320c-46,302 -51,317 -107,358c-33,24 -97,31 -134,14z"/>
  </g>
 </g>
</svg>