<?xml version="1.0" standalone="no"?>
<!DOCTYPE svg PUBLIC "-//W3C//DTD SVG 20010904//EN"
 "http://www.w3.org/TR/2001/REC-SVG-20010904/DTD/svg10.dtd">
<svg version="1.0" xmlns="http://www.w3.org/2000/svg"
 width="232.000000pt" height="300.000000pt" viewBox="0 0 232.000000 300.000000"
 preserveAspectRatio="xMidYMid meet">
<metadata>
Created by potrace 1.13, written by Peter Selinger 2001-2015
</metadata>
<g transform="translate(0.000000,300.000000) scale(0.100000,-0.100000)"
fill="#000000" stroke="none">
<path d="M965 2966 c-41 -18 -83 -69 -90 -109 -8 -44 81 -625 101 -655 8 -12
26 -28 40 -34 14 -7 24 -20 24 -32 0 -17 -17 -27 -93 -55 -119 -43 -289 -128
-397 -198 -353 -231 -530 -507 -530 -831 0 -120 18 -219 65 -350 47 -132 104
-222 209 -330 187 -194 394 -293 671 -323 250 -28 558 55 833 223 196 119 384
320 463 493 16 35 29 67 29 71 0 3 -27 -19 -60 -49 -253 -235 -643 -431 -959
-483 -256 -42 -485 12 -660 155 -107 87 -231 288 -267 431 -12 47 -15 93 -12
165 8 153 61 273 188 422 135 160 415 340 631 408 l85 26 -19 127 -20 127 27
39 c14 22 26 53 26 70 0 17 -20 161 -44 320 -46 302 -51 317 -107 358 -33 24
-97 31 -134 14z"/>
</g>
</svg>
