<?xml version="1.0" encoding="utf-8"?>
<!-- Generator: Adobe Illustrator 16.0.0, SVG Export Plug-In . SVG Version: 6.00 Build 0)  -->
<!DOCTYPE svg PUBLIC "-//W3C//DTD SVG 1.1//EN" "http://www.w3.org/Graphics/SVG/1.1/DTD/svg11.dtd">
<svg version="1.1" id="Layer_1" xmlns="http://www.w3.org/2000/svg" xmlns:xlink="http://www.w3.org/1999/xlink" x="0px" y="0px"
	 width="609.832px" height="518.665px" viewBox="0 0 609.832 518.665" enable-background="new 0 0 609.832 518.665"
	 xml:space="preserve">
<path fill="#050505" d="M286.271,2.38c31.805-3.42,64.131,4.42,92.294,19.21c16.993,8.85,33.913,19.97,43.95,36.8
	c10.019,16.78,10.905,37.38,7.902,56.26c-1.206,5.72-2.257,12.1-6.485,16.439c-1.937,1.93-4.271-0.39-4.819-2.35
	c-3.501-9.29-0.918-19.551-3.882-28.97c-4.918-17.77-18.104-31.55-31.566-43.42c-6.982-6.23-15.016-11.62-24.185-13.97
	c-12.691-3.31-25.931-2.8-38.93-2.79c-20.831,0.11-41.692,2.94-61.667,8.93c-34.321,10.2-65.479,28.8-94.153,49.94
	c-11.095,8.39-22,17.181-31.428,27.45c-2.078,2.453-31.928,42.93-38.022,50.8c-9.857,12.55-17.221,26.87-23.286,41.591
	c-9.05,22.28-15.116,45.721-18.638,69.501c-2.884,20.13-4.03,40.64-1.775,60.896c1.517,12.791,4.33,25.682,10.506,37.102
	c7.134,12.939,16.73,24.354,27.087,34.813c7.544,7.461,33.114,25.301,37.993,26.221c3.792,0.73,74.021,17.75,96.809,20.09
	c52.719,5.689,106.033,3.42,158.582-2.971c44.179-5.379,87.698-15.129,130.64-26.699c8.66-2.471,17.38-4.82,25.739-8.189
	c2.715-0.99,37.245-9.82,50.438-18.07c3.739-1.801,5.457-6.381,9.628-7.449c4.367-1.4,9.355,2.563,8.919,7.148
	c-0.458,3.471-2.794,6.291-5.107,8.75c-4.889,4.91-10.726,8.711-16.603,12.301c-16.91,9.98-35.062,17.631-53.277,24.842
	c-40.986,15.629-83.169,28.059-125.949,37.709c-44.847,9.211-90.502,14.158-136.215,16.189c-18.309,0.75-36.666,0.889-54.964-0.229
	c-8.859-0.711-17.789-1.49-26.351-4.012c-5.057-1.396-79.396-23.439-97.825-33.893c-21.021-12.5-40.977-27.52-56.37-46.721
	c-8.151-11.229-16.413-22.646-21.541-35.647c-6.415-16.291-6.575-34.11-6.686-51.381c-0.539-40.16,5.708-80.641,20.354-118.131
	c13.986-36.35,35.438-69.459,60.779-98.859c25.072-29.179,53.776-55.021,83.907-78.839c0.815-0.642,6.335-3.232,13.496-6.403
	c13.375-5.922,32.481-13.869,37.407-14.937c3.398-0.838,11.324-3.714,19.941-6.859c11.263-4.11,23.705-8.683,28.774-9.771
	C276.503,3.702,281.372,2.912,286.271,2.38z"/>
<path fill="#050505" d="M265.754,606.34"/>
</svg>
